<?xml version="1.0" standalone="no"?>
<!DOCTYPE svg PUBLIC "-//W3C//DTD SVG 20010904//EN"
 "http://www.w3.org/TR/2001/REC-SVG-20010904/DTD/svg10.dtd">
<svg version="1.0" xmlns="http://www.w3.org/2000/svg"
 width="500.000000pt" height="500.000000pt" viewBox="0 0 500.000000 500.000000"
 preserveAspectRatio="xMidYMid meet">

<g transform="translate(0.000000,500.000000) scale(0.100000,-0.100000)"
fill="#000000" stroke="none">
<path d="M2724 3541 c-2 -2 -4 -12 -4 -21 0 -14 12 -18 57 -23 61 -6 100 -29
120 -68 9 -17 13 -95 13 -271 l0 -248 109 0 110 0 3 253 c4 348 -10 331 288
331 230 0 266 -7 326 -68 47 -46 66 -97 85 -226 10 -73 13 -80 34 -80 22 0 23
2 21 118 0 64 1 159 4 210 l5 92 -583 3 c-321 1 -586 0 -588 -2z"/>
<path d="M1050 3521 c0 -15 10 -19 57 -24 61 -6 100 -29 120 -68 9 -17 13 -95
13 -271 l0 -248 25 0 25 0 0 236 c0 179 3 235 12 232 7 -3 79 -109 162 -236
l149 -232 125 0 c68 0 122 4 120 8 -1 5 -93 146 -202 315 l-200 307 -203 0
c-191 0 -203 -1 -203 -19z"/>
<path d="M2080 3521 c0 -15 10 -20 58 -25 32 -4 72 -15 90 -26 57 -35 62 -62
62 -325 l0 -235 24 0 24 0 4 238 c3 205 6 242 22 275 22 45 58 66 127 74 39 5
49 10 49 24 0 18 -12 19 -230 19 -218 0 -230 -1 -230 -19z"/>
<path d="M3505 2998 c-3 -29 -9 -61 -11 -70 -4 -14 1 -18 24 -18 25 0 30 5 36
31 3 17 6 49 6 70 0 35 -3 39 -24 39 -22 0 -25 -6 -31 -52z"/>
<path d="M1102 2683 l1 -78 6 60 6 60 44 -57 c24 -32 47 -58 52 -58 12 0 11
137 0 145 -6 3 -11 -19 -13 -51 l-3 -56 -40 56 c-22 30 -43 56 -47 56 -5 0 -7
-35 -6 -77z"/>
<path d="M1310 2685 c0 -53 4 -75 13 -75 8 0 12 22 12 75 0 53 -4 75 -12 75
-9 0 -13 -22 -13 -75z"/>
<path d="M1500 2685 c0 -53 4 -75 13 -75 9 0 11 20 9 75 -5 97 -22 98 -22 0z"/>
<path d="M1708 2685 c2 -41 7 -75 12 -75 5 0 10 34 12 75 2 62 0 75 -12 75
-12 0 -14 -13 -12 -75z"/>
<path d="M1862 2688 c4 -97 23 -100 23 -3 0 55 -4 75 -13 75 -10 0 -12 -18
-10 -72z"/>
<path d="M2071 2741 c-43 -43 -14 -132 42 -130 14 0 17 2 7 6 -48 18 -68 84
-34 117 19 19 55 21 73 4 11 -11 13 -10 9 2 -7 25 -73 25 -97 1z"/>
<path d="M2370 2685 c0 -53 4 -75 13 -75 8 0 12 22 12 75 0 53 -4 75 -12 75
-9 0 -13 -22 -13 -75z"/>
<path d="M2560 2691 c0 -39 5 -73 10 -76 6 -4 10 16 10 52 l1 58 27 -34 c15
-19 37 -46 49 -60 l22 -26 -1 80 c-1 60 -3 67 -5 28 -2 -29 -8 -53 -12 -53 -5
0 -24 22 -42 50 -47 69 -59 65 -59 -19z"/>
<path d="M2818 2685 c2 -41 7 -75 12 -75 5 0 10 34 12 75 2 62 0 75 -12 75
-12 0 -14 -13 -12 -75z"/>
<path d="M2970 2713 c0 -67 18 -97 59 -101 52 -5 71 19 71 90 0 32 -4 58 -10
58 -6 0 -10 -26 -10 -58 0 -63 -11 -82 -47 -82 -29 0 -43 32 -43 96 0 24 -4
44 -10 44 -5 0 -10 -21 -10 -47z"/>
<path d="M3190 2685 c0 -53 4 -75 13 -75 9 0 11 20 9 75 -5 97 -22 98 -22 0z"/>
<path d="M3380 2685 c0 -80 15 -103 22 -34 5 53 -2 109 -13 109 -5 0 -9 -34
-9 -75z"/>
<path d="M3479 2723 c-6 -55 1 -113 12 -113 5 0 9 34 9 75 0 77 -15 104 -21
38z"/>
<path d="M3610 2740 c-24 -24 -26 -77 -4 -108 20 -29 76 -30 104 -2 45 45 13
130 -50 130 -17 0 -39 -9 -50 -20z m84 -6 c34 -33 13 -114 -29 -114 -47 0 -72
60 -45 111 13 23 53 25 74 3z"/>
<path d="M3820 2745 c-18 -21 -6 -43 35 -62 26 -13 35 -23 33 -38 -3 -23 -46
-34 -59 -14 -4 8 -11 10 -14 7 -13 -13 6 -28 35 -28 43 0 60 10 60 36 0 17
-10 29 -40 44 -42 21 -52 46 -24 57 9 3 25 1 35 -5 10 -6 21 -8 23 -3 14 23
-65 28 -84 6z"/>
<path d="M1238 2223 c-3 -192 -5 -221 -21 -245 -19 -28 -79 -55 -132 -60 -21
-2 -31 -9 -33 -23 -3 -20 3 -20 228 -20 227 0 230 0 230 21 0 19 -7 22 -59 27
-33 3 -73 13 -90 23 -57 34 -65 67 -69 292 l-4 202 -23 0 -24 0 -3 -217z"/>
<path d="M1927 2427 c4 -8 89 -138 187 -290 150 -232 183 -277 203 -277 l23 0
0 290 0 290 -25 0 c-24 0 -24 -2 -27 -87 l-3 -88 -57 88 -58 87 -125 0 c-102
0 -124 -3 -118 -13z"/>
<path d="M2910 2230 c0 -279 -6 -293 -128 -308 -46 -6 -58 -11 -60 -27 -3 -20
3 -20 612 -20 l615 0 -6 24 c-3 14 -7 119 -7 233 -1 207 -1 208 -23 208 -18 0
-23 -7 -28 -37 -29 -180 -57 -254 -116 -307 -65 -59 -123 -71 -356 -71 -288 0
-282 -7 -282 313 l-1 202 -110 0 -110 0 0 -210z"/>
<path d="M3510 2426 c0 -30 13 -46 36 -46 24 0 30 14 18 44 -8 20 -54 21 -54
2z"/>
<path d="M1948 1553 c7 -3 16 -2 19 1 4 3 -2 6 -13 5 -11 0 -14 -3 -6 -6z"/>
</g>
</svg>
